<?xml version="1.0" encoding="utf-8"?>
<?xml-stylesheet type="text/xsl" href="rss1.xsl"?>
<rss version="2.0" xmlns:atom="http://www.w3.org/2005/Atom" xmlns:content="http://purl.org/rss/1.0/modules/content/" xmlns:dc="http://purl.org/dc/elements/1.1/" xmlns:media="http://search.yahoo.com/mrss/">
<channel>
 <title>Getty</title>
 <link>http://www.gettyimg.com/</link>
 <atom:link href="http://www.gettyimg.com/" rel="self" type="application/rss+xml" />

 
                <item>
                <title><![CDATA[【Interviews / TV shows / Others】HDTV - Christina Aguilera - Interview [Today Show Australia 27 Nov 2023 9HD]-1080i_DD2.0_azamusic]]></title>
                <link><![CDATA[https://sharemania.us/threads/christina-aguilera-interview-today-show-australia-27-nov-2023-9hd-1080i_dd2-0_azamusic.232903/]]></link>
                <description><![CDATA[<article>
<blockquote class="messageText SelectQuoteContainer ugc baseHtml">
Interview while here in Australia !<br>
<br>
<div class="ToggleTriggerAnchor bbCodeSpoilerContainer">
<button type="button" class="button bbCodeSpoilerButton ToggleTrigger Tooltip JsOnly" data-target="> .SpoilerTarget"><span>Spoiler: <span class="SpoilerTitle">Media Info</span></span></button>
<div class="SpoilerTarget bbCodeSpoilerText">General<br>
ID : 1 (0x1)<br>
Complete name : \\192.168.1.1\data\aza\Today\Christina Aguilera - Interview [Today Show Australia 27 Nov 2023 9HD]_azamusic.ts<br>
Format : MPEG-TS<br>
File size : 181 MiB<br>
Duration : 5 min 21 s<br>
Overall bit rate mode : Variable<br>
Overall bit rate : 4 717 kb/s<br>
Frame rate : 25.000 FPS<br>
<br>
Video<br>
ID : 256 (0x100)<br>
Menu ID : 1 (0x1)<br>
Format : AVC<br>
Format/Info : Advanced Video Codec<br>
Format profile : High@L4<br>
Format settings : CABAC / 4 Ref Frames<br>
Format settings, CABAC : Yes<br>
Format settings, Reference fra : 4 frames<br>
Format settings, GOP : M=8, N=24<br>
Codec ID : 27<br>
Duration : 5 min 21 s<br>
Bit rate : 4 032 kb/s<br>
Width : 1 920 pixels<br>
Height : 1 080 pixels<br>
Display aspect ratio : 16:9<br>
Frame rate : 25.000 FPS<br>
Color space : YUV<br>
Chroma subsampling : 4:2:0<br>
Bit depth : 8 bits<br>
Scan type : Interlaced<br>
Scan type, store method : Separated fields<br>
Scan order : Top Field First<br>
Bits/(Pixel*Frame) : 0.078<br>
Stream size : 155 MiB (85%)<br>
Color range : Limited<br>
<br>
Audio<br>
ID : 257 (0x101)<br>
Menu ID : 1 (0x1)<br>
Format : AC-3<br>
Format/Info : Audio Coding 3<br>
Commercial name : Dolby Digital<br>
Codec ID : 129<br>
Duration : 5 min 21 s<br>
Bit rate mode : Constant<br>
Bit rate : 448 kb/s<br>
Channel(s) : 6 channels<br>
Channel layout : L R C LFE Ls Rs<br>
Sampling rate : 48.0 kHz<br>
Frame rate : 31.250 FPS (1536 SPF)<br>
Compression mode : Lossy<br>
Delay relative to video : -345 ms<br>
Stream size : 17.2 MiB (10%)<br>
Language : English<br>
Service kind : Complete Main<br>
<br>
Menu<br>
ID : 4096 (0x1000)<br>
Menu ID : 1 (0x1)<br>
Format : AVC / AC-3<br>
Duration : 5 min 21 s<br>
List : 256 (0x100) (AVC) / 257 (0x101) (AC-3, English)<br>
Language : / English<br>
Service name : Service01<br>
Service provider : FFmpeg<br>
Service type : digital television</div>
</div><br>
<div class="bbCodeBlock bbCodeVfcHH HiddenContent">
<div class="attribution type">Hidden Content:</div>
<blockquote>You must reply before you can see the hidden data contained here.</blockquote>
</div><br>
<img src="https://www.aaronsouth.com/azamusic/ca_today2023.png" class="bbCodeImage LbImage" alt="[​IMG]" data-url="https://www.aaronsouth.com/azamusic/ca_today2023.png" style="">
<div class="messageTextEndMarker">&nbsp;</div>
</blockquote>
</article>]]></description>
                <author><![CDATA[azamusic]]></author>
                </item>

                </channel></rss>